<?xml version="1.0" standalone="no"?>
<!DOCTYPE svg PUBLIC "-//W3C//DTD SVG 20010904//EN"
 "http://www.w3.org/TR/2001/REC-SVG-20010904/DTD/svg10.dtd">
<svg version="1.0" xmlns="http://www.w3.org/2000/svg"
 width="288.000000pt" height="288.000000pt" viewBox="0 0 288.000000 288.000000"
 preserveAspectRatio="xMidYMid meet">

<g transform="translate(0.000000,288.000000) scale(0.100000,-0.100000)"
fill="#000000" stroke="none">
<path d="M890 2615 l0 -55 -110 0 -110 0 0 -55 0 -55 -50 0 -50 0 0 -50 0 -50
-55 0 -55 0 0 -110 0 -110 -105 0 -105 0 0 -50 0 -50 -55 0 -55 0 0 -55 0 -55
55 0 55 0 0 -55 0 -55 50 0 50 0 0 -105 0 -105 -50 0 -50 0 0 -55 0 -55 50 0
50 0 0 -50 0 -50 55 0 55 0 0 -110 0 -110 55 0 55 0 0 -51 0 -50 53 3 52 3 3
48 3 47 -55 0 -56 0 0 215 0 215 50 0 50 0 0 -55 0 -55 55 0 55 0 0 -50 0 -50
-48 0 c-27 0 -51 -2 -53 -4 -2 -2 -2 -27 -1 -55 l4 -51 49 0 49 0 0 55 0 55
105 0 104 0 3 -107 3 -108 53 -3 52 -3 0 110 0 111 55 0 55 0 0 -111 0 -110
53 3 52 3 3 53 3 52 105 0 104 0 0 -55 0 -55 50 0 50 0 0 110 0 110 55 0 55 0
0 -110 0 -110 55 0 55 0 0 110 0 110 105 0 105 0 0 -55 0 -55 56 0 55 0 -3 53
-3 52 -52 3 -53 3 0 50 0 49 55 0 55 0 0 55 0 55 50 0 50 0 0 -215 0 -215 -50
0 -50 0 0 -50 0 -50 -55 0 -55 0 0 -159 0 -160 -52 -3 -53 -3 -3 -107 -3 -108
-49 0 -50 0 0 -50 0 -50 -55 0 -55 0 0 -55 0 -55 -55 0 -55 0 0 -55 0 -55
-210 0 -210 0 0 55 0 55 -55 0 -55 0 0 55 0 55 -55 0 -55 0 0 -55 0 -55 55 0
55 0 0 -55 0 -55 55 0 55 0 0 -50 0 -50 210 0 210 0 0 50 0 50 55 0 55 0 0 55
0 55 55 0 55 0 0 55 0 55 50 0 50 0 0 50 0 50 55 0 55 0 0 110 0 110 55 0 55
0 0 160 0 160 50 0 50 0 0 50 0 50 55 0 55 0 0 159 0 160 53 3 52 3 3 158 3
157 49 0 50 0 0 55 0 55 -50 0 -50 0 0 105 0 105 -55 0 -55 0 0 55 0 55 56 0
55 0 -3 53 -3 52 -52 3 -53 3 0 50 0 49 -105 0 -105 0 0 55 0 55 -110 0 -110
0 0 55 0 56 -157 -3 -158 -3 -3 -52 -3 -53 -105 0 -104 0 0 55 0 55 -265 0
-265 0 0 -55z m314 -852 c-1 -27 3 -51 10 -55 6 -4 55 -8 109 -8 l97 0 0 -50
0 -50 55 0 55 0 0 105 0 105 104 0 105 0 3 -52 3 -53 103 3 102 4 0 -56 0 -56
-160 0 -160 0 0 -55 0 -55 -50 0 -50 0 0 -50 0 -50 -110 0 -110 0 0 50 0 50
-50 0 -50 0 0 55 0 55 -160 0 -160 0 0 50 0 49 103 3 102 3 3 53 3 52 52 0 52
0 -1 -47z m-324 -208 c0 -25 0 -48 0 -52 0 -5 -21 -8 -47 -8 l-48 0 -3 53 -3
52 50 0 51 0 0 -45z m1178 -7 l-3 -53 -47 -3 -48 -3 0 55 0 56 51 0 50 0 -3
-52z"/>
<path d="M670 910 l0 -160 55 0 55 0 0 -110 0 -110 55 0 55 0 0 -51 0 -50 53
3 52 3 3 48 3 47 -55 0 -56 0 0 110 0 110 -55 0 -55 0 0 160 0 160 -55 0 -55
0 0 -160z"/>
</g>
</svg>
